<svg width="134" height="33" viewBox="0 0 134 33" fill="none" xmlns="http://www.w3.org/2000/svg">
<path d="M50.8801 25.9871C49.7646 25.9871 48.7607 25.796 47.8683 25.4137C46.976 25.0155 46.2748 24.4581 45.7649 23.7413C45.255 23.0245 45 22.1883 45 21.2326H47.9161C47.9799 21.9494 48.2587 22.5387 48.7527 23.0006C49.2627 23.4626 49.9718 23.6935 50.8801 23.6935C51.8203 23.6935 52.5533 23.4705 53.0791 23.0245C53.605 22.5626 53.8679 21.9733 53.8679 21.2565C53.8679 20.6991 53.7006 20.2451 53.366 19.8947C53.0473 19.5443 52.6409 19.2735 52.1469 19.0824C51.6689 18.8912 50.9996 18.6842 50.1391 18.4612C49.0555 18.1745 48.1711 17.8878 47.4859 17.6011C46.8166 17.2985 46.2429 16.8365 45.7649 16.2154C45.2868 15.5942 45.0478 14.7659 45.0478 13.7306C45.0478 12.7749 45.2868 11.9387 45.7649 11.2219C46.2429 10.5052 46.9122 9.95568 47.7727 9.57341C48.6332 9.19114 49.6292 9 50.7606 9C52.37 9 53.6847 9.40616 54.7045 10.2185C55.7403 11.0149 56.314 12.1139 56.4255 13.5156H53.4138C53.366 12.9103 53.0791 12.3926 52.5533 11.9626C52.0274 11.5325 51.3342 11.3175 50.4737 11.3175C49.6929 11.3175 49.0555 11.5166 48.5615 11.9148C48.0675 12.313 47.8205 12.8864 47.8205 13.635C47.8205 14.1447 47.9719 14.5668 48.2747 14.9013C48.5934 15.2199 48.9918 15.4747 49.4698 15.6658C49.9479 15.857 50.6012 16.064 51.4298 16.287C52.5294 16.5897 53.4217 16.8923 54.1069 17.1949C54.8081 17.4975 55.3977 17.9674 55.8757 18.6045C56.3697 19.2257 56.6167 20.0619 56.6167 21.1132C56.6167 21.9574 56.3857 22.7538 55.9236 23.5024C55.4774 24.251 54.8161 24.8563 53.9396 25.3182C53.0791 25.7641 52.0593 25.9871 50.8801 25.9871Z" fill="#489DDA"/>
<path d="M62.5569 14.5907C63.0191 13.9854 63.6485 13.4757 64.4453 13.0616C65.242 12.6475 66.1424 12.4404 67.1463 12.4404C68.2936 12.4404 69.3374 12.7271 70.2775 13.3005C71.2336 13.858 71.9826 14.6465 72.5244 15.6658C73.0662 16.6852 73.3371 17.8559 73.3371 19.1779C73.3371 20.5 73.0662 21.6866 72.5244 22.7378C71.9826 23.7732 71.2336 24.5855 70.2775 25.1748C69.3374 25.7482 68.2936 26.0349 67.1463 26.0349C66.1424 26.0349 65.25 25.8358 64.4692 25.4376C63.6883 25.0235 63.0509 24.5138 62.5569 23.9085V32.0796H59.832V12.6555H62.5569V14.5907ZM70.5644 19.1779C70.5644 18.2701 70.3731 17.4896 69.9907 16.8365C69.6242 16.1676 69.1302 15.6658 68.5087 15.3314C67.9032 14.9809 67.2498 14.8057 66.5487 14.8057C65.8635 14.8057 65.2101 14.9809 64.5887 15.3314C63.9831 15.6818 63.4891 16.1915 63.1067 16.8604C62.7402 17.5294 62.5569 18.3178 62.5569 19.2257C62.5569 20.1336 62.7402 20.93 63.1067 21.6149C63.4891 22.2839 63.9831 22.7936 64.5887 23.144C65.2101 23.4944 65.8635 23.6696 66.5487 23.6696C67.2498 23.6696 67.9032 23.4944 68.5087 23.144C69.1302 22.7777 69.6242 22.252 69.9907 21.5671C70.3731 20.8822 70.5644 20.0858 70.5644 19.1779Z" fill="#489DDA"/>
<path d="M88.1026 18.9151C88.1026 19.4089 88.0708 19.8549 88.007 20.2531H77.944C78.0236 21.3043 78.414 22.1485 79.1152 22.7856C79.8163 23.4227 80.6768 23.7413 81.6967 23.7413C83.1627 23.7413 84.1985 23.1281 84.804 21.9016H87.7441C87.3457 23.1121 86.6207 24.1076 85.5689 24.8881C84.5331 25.6526 83.2424 26.0349 81.6967 26.0349C80.4378 26.0349 79.3064 25.7562 78.3025 25.1987C77.3145 24.6253 76.5337 23.8289 75.96 22.8095C75.4023 21.7742 75.1234 20.5796 75.1234 19.2257C75.1234 17.8719 75.3943 16.6852 75.9361 15.6658C76.4939 14.6305 77.2667 13.8341 78.2547 13.2766C79.2586 12.7192 80.4059 12.4404 81.6967 12.4404C82.9396 12.4404 84.0471 12.7112 85.0192 13.2528C85.9912 13.7943 86.7481 14.5588 87.2899 15.5464C87.8317 16.518 88.1026 17.6409 88.1026 18.9151ZM85.2582 18.055C85.2423 17.0516 84.8837 16.2472 84.1826 15.6419C83.4814 15.0367 82.613 14.7341 81.5772 14.7341C80.637 14.7341 79.8323 15.0367 79.163 15.6419C78.4937 16.2313 78.0953 17.0356 77.9679 18.055H85.2582Z" fill="#489DDA"/>
<path d="M89.8759 19.2257C89.8759 17.8719 90.1468 16.6852 90.6886 15.6658C91.2463 14.6305 92.0112 13.8341 92.9833 13.2766C93.9553 12.7192 95.0708 12.4404 96.3297 12.4404C97.9232 12.4404 99.2378 12.8227 100.274 13.5872C101.325 14.3359 102.034 15.411 102.401 16.8126H99.4609C99.2219 16.1596 98.8394 15.6499 98.3136 15.2836C97.7877 14.9172 97.1264 14.7341 96.3297 14.7341C95.2142 14.7341 94.3218 15.1323 93.6525 15.9286C92.9992 16.7091 92.6725 17.8081 92.6725 19.2257C92.6725 20.6433 92.9992 21.7503 93.6525 22.5467C94.3218 23.3431 95.2142 23.7413 96.3297 23.7413C97.9072 23.7413 98.951 23.0484 99.4609 21.6627H102.401C102.019 23.0006 101.301 24.0678 100.25 24.8642C99.198 25.6447 97.8913 26.0349 96.3297 26.0349C95.0708 26.0349 93.9553 25.7562 92.9833 25.1987C92.0112 24.6253 91.2463 23.8289 90.6886 22.8095C90.1468 21.7742 89.8759 20.5796 89.8759 19.2257Z" fill="#489DDA"/>
<path d="M111.761 12.4404C112.797 12.4404 113.722 12.6555 114.534 13.0855C115.363 13.5156 116.008 14.1527 116.47 14.9969C116.932 15.841 117.164 16.8604 117.164 18.055V25.8199H114.462V18.4612C114.462 17.2825 114.168 16.3826 113.578 15.7614C112.988 15.1243 112.184 14.8057 111.164 14.8057C110.144 14.8057 109.331 15.1243 108.726 15.7614C108.136 16.3826 107.841 17.2825 107.841 18.4612V25.8199H105.117V12.6555H107.841V14.1606C108.288 13.6191 108.853 13.197 109.539 12.8944C110.24 12.5917 110.981 12.4404 111.761 12.4404Z" fill="#489DDA"/>
<path d="M126.352 26.0349C125.109 26.0349 123.986 25.7562 122.982 25.1987C121.978 24.6253 121.189 23.8289 120.615 22.8095C120.042 21.7742 119.755 20.5796 119.755 19.2257C119.755 17.8878 120.05 16.7012 120.639 15.6658C121.229 14.6305 122.034 13.8341 123.053 13.2766C124.073 12.7192 125.213 12.4404 126.472 12.4404C127.73 12.4404 128.87 12.7192 129.89 13.2766C130.91 13.8341 131.714 14.6305 132.304 15.6658C132.893 16.7012 133.188 17.8878 133.188 19.2257C133.188 20.5637 132.885 21.7503 132.28 22.7856C131.674 23.8209 130.846 24.6253 129.794 25.1987C128.758 25.7562 127.611 26.0349 126.352 26.0349ZM126.352 23.6696C127.053 23.6696 127.707 23.5024 128.312 23.1679C128.934 22.8334 129.436 22.3317 129.818 21.6627C130.2 20.9937 130.392 20.1814 130.392 19.2257C130.392 18.2701 130.208 17.4657 129.842 16.8126C129.475 16.1437 128.989 15.6419 128.384 15.3075C127.778 14.973 127.125 14.8057 126.424 14.8057C125.723 14.8057 125.069 14.973 124.464 15.3075C123.874 15.6419 123.404 16.1437 123.053 16.8126C122.703 17.4657 122.528 18.2701 122.528 19.2257C122.528 20.6433 122.886 21.7423 123.603 22.5228C124.336 23.2873 125.253 23.6696 126.352 23.6696Z" fill="#489DDA"/>
<path d="M31.1182 7.8615L18.1802 0.465314C17.6472 0.160481 17.0426 0 16.4272 0C15.8118 0 15.2072 0.160481 14.6742 0.465314L1.75206 7.8615C1.21965 8.16623 0.777498 8.6043 0.469976 9.13178C0.162453 9.65926 0.00037347 10.2576 0 10.8667L0 25.6603C0.000799652 26.269 0.163081 26.8668 0.470583 27.3939C0.778084 27.9209 1.22 28.3586 1.75206 28.6631L8.11528 32.3049L8.16999 32.3386C8.41355 32.4425 8.66861 32.5177 8.9299 32.5626H8.95057L9.05331 32.5795C9.65627 32.6758 10.2745 32.5995 10.8352 32.3597L10.9014 32.3302C10.9574 32.3055 10.9908 32.2892 11.0011 32.2838C12.6334 31.4786 14.4372 29.0214 15.4694 22.6352C15.7563 22.7769 16.0723 22.8509 16.3929 22.8514H16.4269C16.7292 22.8459 17.0267 22.7761 17.2993 22.6467L17.368 22.6117C18.4015 29.0154 20.2052 31.4792 21.8405 32.2844C21.8509 32.2844 21.8849 32.3061 21.9402 32.3308L22.0065 32.3603C22.5676 32.6001 23.1862 32.6764 23.7896 32.5801L23.8911 32.5632H23.9118C24.1981 32.5135 24.4766 32.427 24.7404 32.3061L24.7975 32.2724L25.3349 31.9712L25.3556 31.9556L31.1097 28.6661C31.6421 28.3613 32.0841 27.923 32.3916 27.3955C32.699 26.8679 32.8609 26.2695 32.8611 25.6603V10.8679C32.8619 10.2595 32.7013 9.66149 32.3954 9.13386C32.0895 8.60623 31.6491 8.16747 31.1182 7.8615ZM21.6387 18.1172V18.1322L20.8776 21.7728C20.8653 21.839 20.835 21.9006 20.79 21.9509C20.7449 22.0013 20.6868 22.0385 20.622 22.0585C20.5571 22.0785 20.488 22.0806 20.422 22.0645C20.3561 22.0485 20.2958 22.0149 20.2478 21.9673L20.2362 21.9595L18.1084 20.4876C17.6741 20.9454 17.0774 21.2185 16.4439 21.2494H16.4087C15.7766 21.2286 15.1776 20.9646 14.7387 20.5135L12.617 21.9866C12.6111 21.993 12.6041 21.9983 12.5963 22.0022C12.5473 22.044 12.4878 22.0721 12.4242 22.0837C12.3605 22.0952 12.2949 22.0897 12.2341 22.0678C12.1733 22.046 12.1194 22.0084 12.078 21.9591C12.0367 21.9098 12.0093 21.8505 11.9987 21.7872L11.2407 18.14V18.0949C11.2219 17.9907 11.228 17.8837 11.2584 17.7822C11.2888 17.6808 11.3426 17.5878 11.4157 17.5107L12.8748 16.1291L12.9799 16.0304C13.4474 11.5834 14.6147 9.65439 15.7953 8.36197C16.0123 8.12107 16.2287 7.90788 16.4445 7.6995C16.6664 7.9157 16.8938 8.14215 17.12 8.39268C18.2884 9.68691 19.4416 11.6201 19.9055 16.0292L19.9499 16.0701L21.463 17.5017C21.5393 17.5827 21.5947 17.6809 21.6243 17.7878C21.654 17.8946 21.657 18.007 21.6332 18.1153L21.6387 18.1172ZM16.4439 11.8225C16.7507 11.8237 17.0444 11.9454 17.2607 12.1609C17.477 12.3764 17.5981 12.6681 17.5975 12.972C17.5969 13.2759 17.4746 13.5671 17.2575 13.7818C17.0404 13.9965 16.7461 14.117 16.4394 14.117C16.1326 14.117 15.8384 13.9965 15.6213 13.7818C15.4042 13.5671 15.2819 13.2759 15.2813 12.972C15.2807 12.6681 15.4018 12.3764 15.6181 12.1609C15.8343 11.9454 16.1281 11.8237 16.4348 11.8225H16.4439Z" fill="#489DDA"/>
</svg>
